Coordinates
version=1
nRows=32
nColumns=22
inDegrees=yes

Units are S.I. units (second, meters, Newtons, ...)
If the header above contains a line with 'inDegrees', this indicates whether rotational values are in degrees (yes) or radians (no).

endheader
time	pelvis_tilt	pelvis_list	pelvis_rotation	pelvis_tx	pelvis_ty	pelvis_tz	hip_flexion_r	hip_adduction_r	hip_rotation_r	knee_angle_r	ankle_angle_r	subtalar_angle_r	hip_flexion_l	hip_adduction_l	hip_rotation_l	knee_angle_l	ankle_angle_l	subtalar_angle_l	lumbar_extension	lumbar_bending	lumbar_rotation
      1.54000000	      7.74278159	     -1.66523909	    102.76888085	      0.82506200	      0.93438616	     -0.28153970	     14.75694771	     -1.16958402	     -5.04461137	    -67.26272916	     -6.99111153	      9.80894741	     23.54510907	      1.99932413	     -5.85018940	    -28.70547445	     10.56328706	    -13.38427896	      0.90791893	      2.83185220	     -4.74439492
      1.55000000	      7.64285638	     -1.48592668	    103.80168267	      0.81914620	      0.93543469	     -0.28944855	     16.01893445	     -1.60064783	     -4.99972203	    -68.30573171	     -6.58445190	      9.09128508	     22.40852120	      2.61154745	     -5.10801106	    -28.06883614	     10.86054870	    -13.40717025	      0.84912643	      2.83733443	     -5.22594224
      1.56000000	      7.56936717	     -1.29392917	    104.89231762	      0.81314756	      0.93650436	     -0.29715121	     17.21209248	     -1.97154575	     -4.92595592	    -69.08646612	     -6.11358271	      8.39657161	     21.24017860	      3.19191566	     -4.26057887	    -27.38709210	     11.10975861	    -13.44528385	      0.77982498	      2.87481370	     -5.71888134
      1.57000000	      7.52192370	     -1.10856658	    106.04329878	      0.80707089	      0.93757056	     -0.30466159	     18.35104136	     -2.28334389	     -4.81421849	    -69.60590739	     -5.55776036	      7.93470216	     20.05706384	      3.73851135	     -3.31779950	    -26.65432878	     11.29418559	    -13.45671997	      0.72616468	      2.93729648	     -6.23815145
      1.58000000	      7.47871700	     -0.87859163	    107.21888176	      0.80097782	      0.93866087	     -0.31198808	     19.38418696	     -2.52707511	     -4.65206145	    -69.87681961	     -4.98508010	      7.10459637	     18.81731984	      4.24393743	     -2.28908560	    -25.90789071	     11.47074522	    -13.54724742	      0.61990724	      3.01249516	     -6.70976059
      1.59000000	      7.45781164	     -0.66634137	    108.43146578	      0.79486135	      0.93969644	     -0.31916187	     20.37027105	     -2.70566943	     -4.43314467	    -69.89938951	     -4.29997684	      6.47534384	     17.58858813	      4.69718251	     -1.22555549	    -25.13887779	     11.62365190	    -13.61363066	      0.54487523	      3.10273876	     -7.20449703
      1.60000000	      7.45008641	     -0.44696188	    109.66962882	      0.78873681	      0.94071042	     -0.32618409	     21.28682770	     -2.81524367	     -4.15375587	    -69.68076783	     -3.57560599	      5.89733090	     16.34261410	      5.10040373	     -0.09589583	    -24.34876643	     11.73514263	    -13.67639956	      0.46635393	      3.20354569	     -7.68113539
      1.61000000	      7.45856113	     -0.23747290	    110.93070553	      0.78262156	      0.94165744	     -0.33305667	     22.15861063	     -2.85663444	     -3.80961125	    -69.23865481	     -2.82772893	      5.41751609	     15.10874902	      5.45309969	      1.09561879	    -23.55427320	     11.81527199	    -13.71786340	      0.40471396	      3.30998948	     -8.14480978
      1.62000000	      7.48067658	     -0.02896752	    112.20040934	      0.77652179	      0.94252784	     -0.33982786	     22.97109533	     -2.83274820	     -3.40896563	    -68.58050482	     -2.02291621	      4.89872995	     13.87956134	      5.74467347	      2.30215776	    -22.76102690	     11.89774995	    -13.78150470	      0.35116529	      3.42235404	     -8.59158683
      1.63000000	      7.51823194	      0.13500885	    113.49266938	      0.77042224	      0.94324488	     -0.34648360	     23.77664273	     -2.77043222	     -2.95979654	    -67.73158558	     -1.15520220	      4.50431476	     12.71244545	      5.99433250	      3.51813558	    -21.98609625	     11.97965612	    -13.81154804	      0.35791251	      3.52382599	     -9.05108972
      1.64000000	      7.56462651	      0.35052909	    114.77069212	      0.76436582	      0.94395231	     -0.35305107	     24.47595194	     -2.61495330	     -2.45323368	    -66.68177627	     -0.33970980	      3.83650756	     11.49376509	      6.16750395	      4.77998294	    -21.20503681	     12.04077661	    -13.95057479	      0.30975827	      3.64865708	     -9.44120706
      1.65000000	      7.63227656	      0.51070879	    116.08582517	      0.75829829	      0.94448225	     -0.35946933	     25.19416661	     -2.44222585	     -1.93297546	    -65.47362956	      0.44636839	      3.37998429	     10.35046275	      6.30791680	      6.10208003	    -20.43667684	     12.10321843	    -14.01390623	      0.33246167	      3.76195430	     -9.84927849
      1.66000000	      7.70508336	      0.66136570	    117.41742651	      0.75223209	      0.94489686	     -0.36578029	     25.87375999	     -2.24437985	     -1.40412419	    -64.11203082	      1.21476052	      2.87204219	      9.22911836	      6.40492535	      7.44519344	    -19.67948449	     12.15985780	    -14.09309045	      0.37075450	      3.86720387	    -10.24906876
      1.67000000	      7.77889879	      0.80200040	    118.76978302	      0.74616041	      0.94519832	     -0.37196861	     26.52089232	     -2.03744739	     -0.88451785	    -62.61802939	      1.93795560	      2.35416553	      8.13030732	      6.46438750	      8.82082027	    -18.93371681	     12.20861146	    -14.17022646	      0.42239246	      3.96108322	    -10.64140359
      1.68000000	      7.84333412	      0.92914127	    120.14008919	      0.74006895	      0.94538663	     -0.37802795	     27.14046439	     -1.84294650	     -0.38145987	    -61.01492688	      2.61157482	      1.87963222	      7.05288533	      6.49724594	     10.21258984	    -18.19793508	     12.24793910	    -14.22795231	      0.48423163	      4.03358850	    -11.02261086
      1.69000000	      7.88301921	      1.07868936	    121.51446024	      0.73394838	      0.94551905	     -0.38396139	     27.69065096	     -1.65156740	      0.10520373	    -59.31367169	      3.22381870	      1.35724794	      5.95983771	      6.49995685	     11.62300725	    -17.48288971	     12.25765664	    -14.30183365	      0.50692527	      4.09335627	    -11.36388095
      1.70000000	      7.89335549	      1.22364525	    122.89363026	      0.72777943	      0.94557405	     -0.38978033	     28.20036964	     -1.49117636	      0.56414184	    -57.53637366	      3.76637744	      0.91168247	      4.86374728	      6.48594185	     13.02489098	    -16.76909982	     12.25389149	    -14.35645581	      0.51608474	      4.12334555	    -11.69659492
      1.71000000	      7.87189393	      1.32950300	    124.28893986	      0.72154658	      0.94550992	     -0.39543299	     28.71181546	     -1.38720971	      0.99816453	    -55.71677934	      4.22605464	      0.65467563	      3.81062117	      6.48613488	     14.43651655	    -16.08720668	     12.20333177	    -14.34749714	      0.53528562	      4.10417240	    -12.03937748
      1.72000000	      7.80618485	      1.54970244	    125.62322654	      0.71525764	      0.94555444	     -0.40115049	     29.04068253	     -1.21575455	      1.41946074	    -53.80479813	      4.58639427	      0.21685621	      2.60082440	      6.39324220	     15.76356909	    -15.35327416	     12.18885840	    -14.45346118	      0.41911750	      4.12174082	    -12.28832346
      1.73000000	      7.73178166	      1.67063474	    126.98563305	      0.70892662	      0.94540320	     -0.40666236	     29.45234164	     -1.11879795	      1.80381572	    -51.89005501	      4.83031156	      0.07362157	      1.51524318	      6.33470589	     17.11047612	    -14.67667999	     12.12940914	    -14.45205134	      0.37381280	      4.07420217	    -12.58986583
      1.74000000	      7.64221319	      1.85724844	    128.30241417	      0.70257704	      0.94527987	     -0.41219507	     29.75682859	     -0.95779105	      2.16241254	    -49.91773441	      4.96914851	     -0.04615027	      0.36068767	      6.19191809	     18.38235822	    -13.98756524	     12.10935474	    -14.49183331	      0.24996967	      4.06140514	    -12.83674671
      1.75000000	      7.56162186	      2.05126445	    129.59489954	      0.69627039	      0.94509143	     -0.41768062	     30.03723683	     -0.76090531	      2.47340912	    -47.90963075	      4.98919288	     -0.07436470	     -0.76856570	      5.98850275	     19.59733895	    -13.32424508	     12.11005771	    -14.54447555	      0.11090529	      4.06240330	    -13.05241552
      1.76000000	      7.50033010	      2.26840308	    130.84781507	      0.69008123	      0.94483594	     -0.42314867	     30.28962461	     -0.49927217	      2.74484446	    -45.86767079	      4.92030368	      0.02715793	     -1.87620097	      5.70470257	     20.74089222	    -12.68350528	     12.17083624	    -14.63363525	     -0.05317907	      4.09251480	    -13.21667943
      1.77000000	      7.50619274	      2.42484120	    132.14042250	      0.68404664	      0.94438567	     -0.42841454	     30.63149930	     -0.24584348	      2.89486467	    -43.80778971	      4.72176936	      0.28352963	     -2.79228294	      5.38611361	     21.88578365	    -12.17140107	     12.20401731	    -14.63372406	     -0.14161224	      4.12758175	    -13.42668587
      1.78000000	      7.52433770	      2.62793783	    133.39856986	      0.67816732	      0.94388866	     -0.43369290	     30.91601626	      0.06245381	      2.97432849	    -41.70633282	      4.51316817	      0.77935823	     -3.70640334	      4.98376491	     22.96709991	    -11.67944094	     12.33016299	    -14.66068960	     -0.27818218	      4.19528448	    -13.59556889
      1.79000000	      7.58960136	      2.81402618	    134.66995482	      0.67239987	      0.94326384	     -0.43884957	     31.22386259	      0.36197709	      2.91536796	    -39.56541703	      4.28146677	      1.49088676	     -4.49372580	      4.54147503	     24.02905112	    -11.28859424	     12.42676482	    -14.66402474	     -0.38103753	      4.28344610	    -13.74581180
      1.80000000	      7.68564809	      2.99806630	    135.95939908	      0.66669581	      0.94253177	     -0.44394735	     31.52054462	      0.64320657	      2.70589358	    -37.37940674	      4.09150917	      2.30368263	     -5.19373577	      4.05898159	     25.07492041	    -10.97502527	     12.56796270	    -14.64681737	     -0.46442730	      4.38675599	    -13.93284446
      1.81000000	      7.79466879	      3.19203395	    137.26440165	      0.66098681	      0.94172301	     -0.44900029	     31.77563857	      0.89724110	      2.34258724	    -35.14566719	      3.99283639	      3.14873321	     -5.83119332	      3.54882374	     26.10106530	    -10.74018210	     12.74491734	    -14.62050566	     -0.54431772	      4.50423655	    -14.14806243
      1.82000000	      7.91682621	      3.39056727	    138.55111709	      0.65522008	      0.94085486	     -0.45407502	     31.99731894	      1.13119025	      1.84437889	    -32.88333525	      4.00942252	      4.14683888	     -6.43323211	      3.01113490	     27.10017174	    -10.53174694	     12.89242140	    -14.58479330	     -0.60935864	      4.63696730	    -14.31061849
      1.83000000	      8.03857500	      3.59659913	    139.84969822	      0.64935226	      0.93992469	     -0.45914579	     32.17170753	      1.33274176	      1.21241799	    -30.60784992	      4.16275086	      5.06882686	     -6.99712974	      2.46081197	     28.08710224	    -10.38315895	     13.07398703	    -14.53719954	     -0.66791566	      4.77568840	    -14.49936997
      1.84000000	      8.15470011	      3.80774640	    141.14104735	      0.64335595	      0.93895166	     -0.46425542	     32.30315789	      1.51403027	      0.48774017	    -28.34825251	      4.44116481	      5.96357659	     -7.53919765	      1.90242365	     29.05126788	    -10.27426877	     13.25704231	    -14.47462655	     -0.71999752	      4.91603156	    -14.68785614
      1.85000000	      8.26400158	      4.01793254	    142.41610253	      0.63719688	      0.93793852	     -0.46942271	     32.40488409	      1.68158533	     -0.29470468	    -26.14138745	      4.80779259	      6.83630994	     -8.06345360	      1.34289044	     29.98532705	    -10.19689978	     13.43378894	    -14.39395082	     -0.75911026	      5.05534951	    -14.86866814
